<svg width="5" height="5" viewBox="0 0 5 5" fill="none" xmlns="http://www.w3.org/2000/svg">
    <path
        d="M0.624957 1.04168H4.37496C4.41292 1.04179 4.45014 1.05227 4.4826 1.07196C4.51506 1.09166 4.54153 1.11983 4.55916 1.15346C4.5768 1.18708 4.58493 1.22488 4.58269 1.26278C4.58044 1.30068 4.5679 1.33725 4.54641 1.36855L2.67142 4.07688C2.59371 4.18918 2.40662 4.18918 2.32871 4.07688L0.453707 1.36855C0.432004 1.33731 0.419276 1.30072 0.416908 1.26276C0.414539 1.2248 0.42262 1.18691 0.440272 1.15322C0.457924 1.11952 0.484473 1.09131 0.517033 1.07165C0.549593 1.05198 0.586919 1.04162 0.624957 1.04168Z"
        fill="#F6501B" />
</svg>