<svg width="111" height="24" viewBox="0 0 111 24" fill="none" xmlns="http://www.w3.org/2000/svg">
    <path
        d="M34.902 4.6H38.598C39.8007 4.6 40.7027 4.92267 41.304 5.568C41.9053 6.21333 42.206 7.15933 42.206 8.406V16.194C42.206 17.4407 41.9053 18.3867 41.304 19.032C40.7027 19.6773 39.8007 20 38.598 20H34.902V4.6ZM38.554 17.8C38.95 17.8 39.2507 17.6827 39.456 17.448C39.676 17.2133 39.786 16.832 39.786 16.304V8.296C39.786 7.768 39.676 7.38667 39.456 7.152C39.2507 6.91733 38.95 6.8 38.554 6.8H37.322V17.8H38.554ZM43.8395 4.6H50.4395V6.8H46.2595V10.87H49.5815V13.07H46.2595V17.8H50.4395V20H43.8395V4.6ZM55.2637 20.22C54.0904 20.22 53.1957 19.89 52.5797 19.23C51.9637 18.5553 51.6557 17.5947 51.6557 16.348V8.252C51.6557 7.00533 51.9637 6.052 52.5797 5.392C53.1957 4.71733 54.0904 4.38 55.2637 4.38C56.437 4.38 57.3317 4.71733 57.9477 5.392C58.5637 6.052 58.8717 7.00533 58.8717 8.252V9.572H56.5837V8.098C56.5837 7.086 56.1657 6.58 55.3297 6.58C54.4937 6.58 54.0757 7.086 54.0757 8.098V16.524C54.0757 17.5213 54.4937 18.02 55.3297 18.02C56.1657 18.02 56.5837 17.5213 56.5837 16.524V13.51H55.3737V11.31H58.8717V16.348C58.8717 17.5947 58.5637 18.5553 57.9477 19.23C57.3317 19.89 56.437 20.22 55.2637 20.22ZM60.4254 4.6H67.0254V6.8H62.8454V10.87H66.1674V13.07H62.8454V17.8H67.0254V20H60.4254V4.6ZM68.4176 4.6H71.4536L73.8076 13.818H73.8516V4.6H76.0076V20H73.5216L70.6176 8.758H70.5736V20H68.4176V4.6Z"
        fill="#6A3BF6" />
    <path
        d="M81.3297 4.6H85.0257C86.2284 4.6 87.1304 4.92267 87.7317 5.568C88.3331 6.21333 88.6337 7.15933 88.6337 8.406V16.194C88.6337 17.4407 88.3331 18.3867 87.7317 19.032C87.1304 19.6773 86.2284 20 85.0257 20H81.3297V4.6ZM84.9817 17.8C85.3777 17.8 85.6784 17.6827 85.8837 17.448C86.1037 17.2133 86.2137 16.832 86.2137 16.304V8.296C86.2137 7.768 86.1037 7.38667 85.8837 7.152C85.6784 6.91733 85.3777 6.8 84.9817 6.8H83.7497V17.8H84.9817ZM90.2672 4.6H92.6872V20H90.2672V4.6ZM97.9097 20.22C96.751 20.22 95.8637 19.89 95.2477 19.23C94.6463 18.57 94.3457 17.6387 94.3457 16.436V8.164C94.3457 6.96133 94.6463 6.03 95.2477 5.37C95.8637 4.71 96.751 4.38 97.9097 4.38C99.0683 4.38 99.9483 4.71 100.55 5.37C101.166 6.03 101.474 6.96133 101.474 8.164V9.792H99.1857V8.01C99.1857 7.05667 98.7823 6.58 97.9757 6.58C97.169 6.58 96.7657 7.05667 96.7657 8.01V16.612C96.7657 17.5507 97.169 18.02 97.9757 18.02C98.7823 18.02 99.1857 17.5507 99.1857 16.612V14.258H101.474V16.436C101.474 17.6387 101.166 18.57 100.55 19.23C99.9483 19.89 99.0683 20.22 97.9097 20.22ZM102.922 4.6H109.522V6.8H105.342V10.87H108.664V13.07H105.342V17.8H109.522V20H102.922V4.6Z"
        fill="white" />
    <path
        d="M12.008 8H12M10.341 13.159C9.682 12.5 8.621 12.5 6.5 12.5C4.379 12.5 3.318 12.5 2.659 13.159C2 13.818 2 14.879 2 17C2 19.121 2 20.182 2.659 20.841C3.318 21.5 4.379 21.5 6.5 21.5C8.621 21.5 9.682 21.5 10.341 20.841C11 20.182 11 19.121 11 17C11 14.879 11 13.818 10.341 13.159ZM15.222 4.778C16.74 6.297 17.5 7.056 17.5 8C17.5 8.944 16.74 9.703 15.222 11.222C13.704 12.741 12.944 13.5 12 13.5C11.056 13.5 10.297 12.74 8.778 11.222C7.259 9.704 6.5 8.944 6.5 8C6.5 7.056 7.26 6.297 8.778 4.778C10.296 3.259 11.056 2.5 12 2.5C12.944 2.5 13.703 3.26 15.222 4.778ZM21.341 13.159C20.682 12.5 19.621 12.5 17.5 12.5C15.379 12.5 14.318 12.5 13.659 13.159C13 13.818 13 14.879 13 17C13 19.121 13 20.182 13.659 20.841C14.318 21.5 15.379 21.5 17.5 21.5C19.621 21.5 20.682 21.5 21.341 20.841C22 20.182 22 19.121 22 17C22 14.879 22 13.818 21.341 13.159Z"
        stroke="white" stroke-width="1.5" stroke-linecap="round" stroke-linejoin="round" />
</svg>