<svg width="150" height="24" viewBox="0 0 150 24" fill="none" xmlns="http://www.w3.org/2000/svg">
    <mask id="path-1-outside-1_11_501" maskUnits="userSpaceOnUse" x="33" y="2" width="117" height="20" fill="black">
        <rect fill="white" x="33" y="2" width="117" height="20" />
        <path
            d="M35.1 20V4.6H44.34V6.14H45.88V18.46H44.34V20H35.1ZM41.26 16.92V7.68H39.72V16.92H41.26ZM52.6966 13.84V16.92H58.8566V20H48.0766V4.6H58.8566V7.68H52.6966V10.76H57.3166V13.84H52.6966ZM67.2131 16.92V10.76H71.8331V20H61.0531V4.6H71.8331V7.68H65.6731V16.92H67.2131ZM78.6497 13.84V16.92H84.8097V20H74.0297V4.6H84.8097V7.68H78.6497V10.76H83.2697V13.84H78.6497ZM91.6263 13.84V20H87.0063V4.6H91.6263V7.68H93.1663V10.76H94.7063V4.6H99.3263V20H94.7063V16.92H93.1663V13.84H91.6263Z" />
        <path
            d="M105.934 20V4.6H115.174V6.14H116.714V18.46H115.174V20H105.934ZM112.094 16.92V7.68H110.554V16.92H112.094ZM118.911 20V4.6H123.531V20H118.911ZM134.961 16.92V20H125.721V4.6H134.961V7.68H130.341V16.92H134.961ZM141.771 13.84V16.92H147.931V20H137.151V4.6H147.931V7.68H141.771V10.76H146.391V13.84H141.771Z" />
    </mask>
    <path
        d="M35.1 20V4.6H44.34V6.14H45.88V18.46H44.34V20H35.1ZM41.26 16.92V7.68H39.72V16.92H41.26ZM52.6966 13.84V16.92H58.8566V20H48.0766V4.6H58.8566V7.68H52.6966V10.76H57.3166V13.84H52.6966ZM67.2131 16.92V10.76H71.8331V20H61.0531V4.6H71.8331V7.68H65.6731V16.92H67.2131ZM78.6497 13.84V16.92H84.8097V20H74.0297V4.6H84.8097V7.68H78.6497V10.76H83.2697V13.84H78.6497ZM91.6263 13.84V20H87.0063V4.6H91.6263V7.68H93.1663V10.76H94.7063V4.6H99.3263V20H94.7063V16.92H93.1663V13.84H91.6263Z"
        fill="#FBC350" />
    <path
        d="M105.934 20V4.6H115.174V6.14H116.714V18.46H115.174V20H105.934ZM112.094 16.92V7.68H110.554V16.92H112.094ZM118.911 20V4.6H123.531V20H118.911ZM134.961 16.92V20H125.721V4.6H134.961V7.68H130.341V16.92H134.961ZM141.771 13.84V16.92H147.931V20H137.151V4.6H147.931V7.68H141.771V10.76H146.391V13.84H141.771Z"
        fill="url(#paint0_linear_11_501)" />
    <path
        d="M35.1 20H33.1V22H35.1V20ZM35.1 4.6V2.6H33.1V4.6H35.1ZM44.34 4.6H46.34V2.6H44.34V4.6ZM44.34 6.14H42.34V8.14H44.34V6.14ZM45.88 6.14H47.88V4.14H45.88V6.14ZM45.88 18.46V20.46H47.88V18.46H45.88ZM44.34 18.46V16.46H42.34V18.46H44.34ZM44.34 20V22H46.34V20H44.34ZM41.26 16.92V18.92H43.26V16.92H41.26ZM41.26 7.68H43.26V5.68H41.26V7.68ZM39.72 7.68V5.68H37.72V7.68H39.72ZM39.72 16.92H37.72V18.92H39.72V16.92ZM37.1 20V4.6H33.1V20H37.1ZM35.1 6.6H44.34V2.6H35.1V6.6ZM42.34 4.6V6.14H46.34V4.6H42.34ZM44.34 8.14H45.88V4.14H44.34V8.14ZM43.88 6.14V18.46H47.88V6.14H43.88ZM45.88 16.46H44.34V20.46H45.88V16.46ZM42.34 18.46V20H46.34V18.46H42.34ZM44.34 18H35.1V22H44.34V18ZM43.26 16.92V7.68H39.26V16.92H43.26ZM41.26 5.68H39.72V9.68H41.26V5.68ZM37.72 7.68V16.92H41.72V7.68H37.72ZM39.72 18.92H41.26V14.92H39.72V18.92ZM52.6966 13.84V11.84H50.6966V13.84H52.6966ZM52.6966 16.92H50.6966V18.92H52.6966V16.92ZM58.8566 16.92H60.8566V14.92H58.8566V16.92ZM58.8566 20V22H60.8566V20H58.8566ZM48.0766 20H46.0766V22H48.0766V20ZM48.0766 4.6V2.6H46.0766V4.6H48.0766ZM58.8566 4.6H60.8566V2.6H58.8566V4.6ZM58.8566 7.68V9.68H60.8566V7.68H58.8566ZM52.6966 7.68V5.68H50.6966V7.68H52.6966ZM52.6966 10.76H50.6966V12.76H52.6966V10.76ZM57.3166 10.76H59.3166V8.76H57.3166V10.76ZM57.3166 13.84V15.84H59.3166V13.84H57.3166ZM50.6966 13.84V16.92H54.6966V13.84H50.6966ZM52.6966 18.92H58.8566V14.92H52.6966V18.92ZM56.8566 16.92V20H60.8566V16.92H56.8566ZM58.8566 18H48.0766V22H58.8566V18ZM50.0766 20V4.6H46.0766V20H50.0766ZM48.0766 6.6H58.8566V2.6H48.0766V6.6ZM56.8566 4.6V7.68H60.8566V4.6H56.8566ZM58.8566 5.68H52.6966V9.68H58.8566V5.68ZM50.6966 7.68V10.76H54.6966V7.68H50.6966ZM52.6966 12.76H57.3166V8.76H52.6966V12.76ZM55.3166 10.76V13.84H59.3166V10.76H55.3166ZM57.3166 11.84H52.6966V15.84H57.3166V11.84ZM67.2131 16.92V18.92H69.2131V16.92H67.2131ZM67.2131 10.76V8.76H65.2131V10.76H67.2131ZM71.8331 10.76H73.8331V8.76H71.8331V10.76ZM71.8331 20V22H73.8331V20H71.8331ZM61.0531 20H59.0531V22H61.0531V20ZM61.0531 4.6V2.6H59.0531V4.6H61.0531ZM71.8331 4.6H73.8331V2.6H71.8331V4.6ZM71.8331 7.68V9.68H73.8331V7.68H71.8331ZM65.6731 7.68V5.68H63.6731V7.68H65.6731ZM65.6731 16.92H63.6731V18.92H65.6731V16.92ZM69.2131 16.92V10.76H65.2131V16.92H69.2131ZM67.2131 12.76H71.8331V8.76H67.2131V12.76ZM69.8331 10.76V20H73.8331V10.76H69.8331ZM71.8331 18H61.0531V22H71.8331V18ZM63.0531 20V4.6H59.0531V20H63.0531ZM61.0531 6.6H71.8331V2.6H61.0531V6.6ZM69.8331 4.6V7.68H73.8331V4.6H69.8331ZM71.8331 5.68H65.6731V9.68H71.8331V5.68ZM63.6731 7.68V16.92H67.6731V7.68H63.6731ZM65.6731 18.92H67.2131V14.92H65.6731V18.92ZM78.6497 13.84V11.84H76.6497V13.84H78.6497ZM78.6497 16.92H76.6497V18.92H78.6497V16.92ZM84.8097 16.92H86.8097V14.92H84.8097V16.92ZM84.8097 20V22H86.8097V20H84.8097ZM74.0297 20H72.0297V22H74.0297V20ZM74.0297 4.6V2.6H72.0297V4.6H74.0297ZM84.8097 4.6H86.8097V2.6H84.8097V4.6ZM84.8097 7.68V9.68H86.8097V7.68H84.8097ZM78.6497 7.68V5.68H76.6497V7.68H78.6497ZM78.6497 10.76H76.6497V12.76H78.6497V10.76ZM83.2697 10.76H85.2697V8.76H83.2697V10.76ZM83.2697 13.84V15.84H85.2697V13.84H83.2697ZM76.6497 13.84V16.92H80.6497V13.84H76.6497ZM78.6497 18.92H84.8097V14.92H78.6497V18.92ZM82.8097 16.92V20H86.8097V16.92H82.8097ZM84.8097 18H74.0297V22H84.8097V18ZM76.0297 20V4.6H72.0297V20H76.0297ZM74.0297 6.6H84.8097V2.6H74.0297V6.6ZM82.8097 4.6V7.68H86.8097V4.6H82.8097ZM84.8097 5.68H78.6497V9.68H84.8097V5.68ZM76.6497 7.68V10.76H80.6497V7.68H76.6497ZM78.6497 12.76H83.2697V8.76H78.6497V12.76ZM81.2697 10.76V13.84H85.2697V10.76H81.2697ZM83.2697 11.84H78.6497V15.84H83.2697V11.84ZM91.6263 13.84V11.84H89.6263V13.84H91.6263ZM91.6263 20V22H93.6263V20H91.6263ZM87.0062 20H85.0062V22H87.0062V20ZM87.0062 4.6V2.6H85.0062V4.6H87.0062ZM91.6263 4.6H93.6263V2.6H91.6263V4.6ZM91.6263 7.68H89.6263V9.68H91.6263V7.68ZM93.1663 7.68H95.1663V5.68H93.1663V7.68ZM93.1663 10.76H91.1663V12.76H93.1663V10.76ZM94.7062 10.76V12.76H96.7062V10.76H94.7062ZM94.7062 4.6V2.6H92.7062V4.6H94.7062ZM99.3262 4.6H101.326V2.6H99.3262V4.6ZM99.3262 20V22H101.326V20H99.3262ZM94.7062 20H92.7062V22H94.7062V20ZM94.7062 16.92H96.7062V14.92H94.7062V16.92ZM93.1663 16.92H91.1663V18.92H93.1663V16.92ZM93.1663 13.84H95.1663V11.84H93.1663V13.84ZM89.6263 13.84V20H93.6263V13.84H89.6263ZM91.6263 18H87.0062V22H91.6263V18ZM89.0062 20V4.6H85.0062V20H89.0062ZM87.0062 6.6H91.6263V2.6H87.0062V6.6ZM89.6263 4.6V7.68H93.6263V4.6H89.6263ZM91.6263 9.68H93.1663V5.68H91.6263V9.68ZM91.1663 7.68V10.76H95.1663V7.68H91.1663ZM93.1663 12.76H94.7062V8.76H93.1663V12.76ZM96.7062 10.76V4.6H92.7062V10.76H96.7062ZM94.7062 6.6H99.3262V2.6H94.7062V6.6ZM97.3263 4.6V20H101.326V4.6H97.3263ZM99.3262 18H94.7062V22H99.3262V18ZM96.7062 20V16.92H92.7062V20H96.7062ZM94.7062 14.92H93.1663V18.92H94.7062V14.92ZM95.1663 16.92V13.84H91.1663V16.92H95.1663ZM93.1663 11.84H91.6263V15.84H93.1663V11.84ZM105.934 20H103.934V22H105.934V20ZM105.934 4.6V2.6H103.934V4.6H105.934ZM115.174 4.6H117.174V2.6H115.174V4.6ZM115.174 6.14H113.174V8.14H115.174V6.14ZM116.714 6.14H118.714V4.14H116.714V6.14ZM116.714 18.46V20.46H118.714V18.46H116.714ZM115.174 18.46V16.46H113.174V18.46H115.174ZM115.174 20V22H117.174V20H115.174ZM112.094 16.92V18.92H114.094V16.92H112.094ZM112.094 7.68H114.094V5.68H112.094V7.68ZM110.554 7.68V5.68H108.554V7.68H110.554ZM110.554 16.92H108.554V18.92H110.554V16.92ZM107.934 20V4.6H103.934V20H107.934ZM105.934 6.6H115.174V2.6H105.934V6.6ZM113.174 4.6V6.14H117.174V4.6H113.174ZM115.174 8.14H116.714V4.14H115.174V8.14ZM114.714 6.14V18.46H118.714V6.14H114.714ZM116.714 16.46H115.174V20.46H116.714V16.46ZM113.174 18.46V20H117.174V18.46H113.174ZM115.174 18H105.934V22H115.174V18ZM114.094 16.92V7.68H110.094V16.92H114.094ZM112.094 5.68H110.554V9.68H112.094V5.68ZM108.554 7.68V16.92H112.554V7.68H108.554ZM110.554 18.92H112.094V14.92H110.554V18.92ZM118.911 20H116.911V22H118.911V20ZM118.911 4.6V2.6H116.911V4.6H118.911ZM123.531 4.6H125.531V2.6H123.531V4.6ZM123.531 20V22H125.531V20H123.531ZM120.911 20V4.6H116.911V20H120.911ZM118.911 6.6H123.531V2.6H118.911V6.6ZM121.531 4.6V20H125.531V4.6H121.531ZM123.531 18H118.911V22H123.531V18ZM134.961 16.92H136.961V14.92H134.961V16.92ZM134.961 20V22H136.961V20H134.961ZM125.721 20H123.721V22H125.721V20ZM125.721 4.6V2.6H123.721V4.6H125.721ZM134.961 4.6H136.961V2.6H134.961V4.6ZM134.961 7.68V9.68H136.961V7.68H134.961ZM130.341 7.68V5.68H128.341V7.68H130.341ZM130.341 16.92H128.341V18.92H130.341V16.92ZM132.961 16.92V20H136.961V16.92H132.961ZM134.961 18H125.721V22H134.961V18ZM127.721 20V4.6H123.721V20H127.721ZM125.721 6.6H134.961V2.6H125.721V6.6ZM132.961 4.6V7.68H136.961V4.6H132.961ZM134.961 5.68H130.341V9.68H134.961V5.68ZM128.341 7.68V16.92H132.341V7.68H128.341ZM130.341 18.92H134.961V14.92H130.341V18.92ZM141.771 13.84V11.84H139.771V13.84H141.771ZM141.771 16.92H139.771V18.92H141.771V16.92ZM147.931 16.92H149.931V14.92H147.931V16.92ZM147.931 20V22H149.931V20H147.931ZM137.151 20H135.151V22H137.151V20ZM137.151 4.6V2.6H135.151V4.6H137.151ZM147.931 4.6H149.931V2.6H147.931V4.6ZM147.931 7.68V9.68H149.931V7.68H147.931ZM141.771 7.68V5.68H139.771V7.68H141.771ZM141.771 10.76H139.771V12.76H141.771V10.76ZM146.391 10.76H148.391V8.76H146.391V10.76ZM146.391 13.84V15.84H148.391V13.84H146.391ZM139.771 13.84V16.92H143.771V13.84H139.771ZM141.771 18.92H147.931V14.92H141.771V18.92ZM145.931 16.92V20H149.931V16.92H145.931ZM147.931 18H137.151V22H147.931V18ZM139.151 20V4.6H135.151V20H139.151ZM137.151 6.6H147.931V2.6H137.151V6.6ZM145.931 4.6V7.68H149.931V4.6H145.931ZM147.931 5.68H141.771V9.68H147.931V5.68ZM139.771 7.68V10.76H143.771V7.68H139.771ZM141.771 12.76H146.391V8.76H141.771V12.76ZM144.391 10.76V13.84H148.391V10.76H144.391ZM146.391 11.84H141.771V15.84H146.391V11.84Z"
        fill="#02017E" mask="url(#path-1-outside-1_11_501)" />
    <path
        d="M12.008 8H12M10.341 13.159C9.682 12.5 8.621 12.5 6.5 12.5C4.379 12.5 3.318 12.5 2.659 13.159C2 13.818 2 14.879 2 17C2 19.121 2 20.182 2.659 20.841C3.318 21.5 4.379 21.5 6.5 21.5C8.621 21.5 9.682 21.5 10.341 20.841C11 20.182 11 19.121 11 17C11 14.879 11 13.818 10.341 13.159ZM15.222 4.778C16.74 6.297 17.5 7.056 17.5 8C17.5 8.944 16.74 9.703 15.222 11.222C13.704 12.741 12.944 13.5 12 13.5C11.056 13.5 10.297 12.74 8.778 11.222C7.259 9.704 6.5 8.944 6.5 8C6.5 7.056 7.26 6.297 8.778 4.778C10.296 3.259 11.056 2.5 12 2.5C12.944 2.5 13.703 3.26 15.222 4.778ZM21.341 13.159C20.682 12.5 19.621 12.5 17.5 12.5C15.379 12.5 14.318 12.5 13.659 13.159C13 13.818 13 14.879 13 17C13 19.121 13 20.182 13.659 20.841C14.318 21.5 15.379 21.5 17.5 21.5C19.621 21.5 20.682 21.5 21.341 20.841C22 20.182 22 19.121 22 17C22 14.879 22 13.818 21.341 13.159Z"
        stroke="white" stroke-width="1.5" stroke-linecap="round" stroke-linejoin="round" />
    <defs>
        <linearGradient id="paint0_linear_11_501" x1="34" y1="12.5" x2="150" y2="12.5" gradientUnits="userSpaceOnUse">
            <stop stop-color="#FBC350" />
            <stop offset="1" stop-color="#F6501B" />
        </linearGradient>
    </defs>
</svg>