<svg width="5" height="4" viewBox="0 0 5 4" fill="none" xmlns="http://www.w3.org/2000/svg">
    <path
        d="M0.624957 3.95834H4.37496C4.41292 3.95822 4.45014 3.94775 4.4826 3.92805C4.51506 3.90836 4.54153 3.88018 4.55916 3.84656C4.5768 3.81294 4.58493 3.77514 4.58269 3.73724C4.58044 3.69934 4.5679 3.66277 4.54641 3.63146L2.67142 0.923132C2.59371 0.81084 2.40662 0.81084 2.32871 0.923132L0.453707 3.63146C0.432004 3.6627 0.419276 3.69929 0.416908 3.73726C0.414539 3.77522 0.42262 3.81311 0.440272 3.8468C0.457924 3.88049 0.484473 3.90871 0.517033 3.92837C0.549593 3.94803 0.586919 3.9584 0.624957 3.95834Z"
        fill="#309816" />
</svg>