<svg width="60" height="60" viewBox="0 0 60 60" fill="none" xmlns="http://www.w3.org/2000/svg">
    <rect width="60" height="60" rx="4" fill="#F6501B" />
    <circle cx="30.1589" cy="30" r="5.76923" transform="rotate(-45 30.1589 30)" fill="#FFFFFF" />
    <mask id="path-3-inside-1_11_1134" fill="#F6501B">
        <path
            d="M28.3756 32.9676C28.8614 33.2595 29.4115 33.4277 29.9776 33.4573C30.5437 33.487 31.1083 33.3771 31.622 33.1375C32.1357 32.8978 32.5827 32.5357 32.9237 32.0829C33.2647 31.6301 33.4892 31.1005 33.5777 30.5406L32.8464 30.4251C32.7769 30.8652 32.6004 31.2816 32.3323 31.6375C32.0642 31.9935 31.7129 32.2782 31.309 32.4666C30.9052 32.655 30.4613 32.7413 30.0163 32.7181C29.5713 32.6948 29.1388 32.5626 28.7569 32.333L28.3756 32.9676Z" />
    </mask>
    <path
        d="M28.3756 32.9676C28.8614 33.2595 29.4115 33.4277 29.9776 33.4573C30.5437 33.487 31.1083 33.3771 31.622 33.1375C32.1357 32.8978 32.5827 32.5357 32.9237 32.0829C33.2647 31.6301 33.4892 31.1005 33.5777 30.5406L32.8464 30.4251C32.7769 30.8652 32.6004 31.2816 32.3323 31.6375C32.0642 31.9935 31.7129 32.2782 31.309 32.4666C30.9052 32.655 30.4613 32.7413 30.0163 32.7181C29.5713 32.6948 29.1388 32.5626 28.7569 32.333L28.3756 32.9676Z"
        fill="#FFFFFF" stroke="black" stroke-width="0.6" mask="url(#path-3-inside-1_11_1134)" />
</svg>