<svg width="60" height="60" viewBox="0 0 60 60" fill="none" xmlns="http://www.w3.org/2000/svg">
    <rect width="60" height="60" rx="4" fill="#F6501B" />
    <circle cx="30.7378" cy="29.6461" r="5.76923" transform="rotate(-45 30.7378 29.6461)" fill="#FFFFFF" />
    <mask id="path-3-inside-1_11_1140" fill="#F6501B">
        <path
            d="M28.9542 32.6137C29.44 32.9057 29.9902 33.0738 30.5562 33.1035C31.1223 33.1331 31.687 33.0233 32.2006 32.7836C32.7143 32.5439 33.1613 32.1818 33.5023 31.729C33.8433 31.2762 34.0679 30.7466 34.1563 30.1867L33.4251 30.0712C33.3555 30.5113 33.179 30.9277 32.9109 31.2837C32.6429 31.6396 32.2915 31.9243 31.8877 32.1127C31.4838 32.3011 31.0399 32.3875 30.5949 32.3642C30.1499 32.3409 29.7174 32.2087 29.3355 31.9791L28.9542 32.6137Z" />
    </mask>
    <path
        d="M28.9542 32.6137C29.44 32.9057 29.9902 33.0738 30.5562 33.1035C31.1223 33.1331 31.687 33.0233 32.2006 32.7836C32.7143 32.5439 33.1613 32.1818 33.5023 31.729C33.8433 31.2762 34.0679 30.7466 34.1563 30.1867L33.4251 30.0712C33.3555 30.5113 33.179 30.9277 32.9109 31.2837C32.6429 31.6396 32.2915 31.9243 31.8877 32.1127C31.4838 32.3011 31.0399 32.3875 30.5949 32.3642C30.1499 32.3409 29.7174 32.2087 29.3355 31.9791L28.9542 32.6137Z"
        stroke="#F6501B" stroke-width="0.6" mask="url(#path-3-inside-1_11_1140)" />
    <circle cx="17.5815" cy="16.49" r="5.76923" transform="rotate(-45 17.5815 16.49)" fill="#FFFFFF" />
    <mask id="path-5-inside-2_11_1140" fill="#F6501B">
        <path
            d="M15.7979 19.4576C16.2838 19.7495 16.8339 19.9177 17.4 19.9473C17.966 19.977 18.5307 19.8671 19.0444 19.6275C19.5581 19.3878 20.0051 19.0257 20.346 18.5729C20.687 18.1201 20.9116 17.5905 21 17.0306L20.2688 16.9151C20.1993 17.3552 20.0227 17.7716 19.7547 18.1275C19.4866 18.4835 19.1352 18.7682 18.7314 18.9566C18.3276 19.145 17.8837 19.2313 17.4387 19.208C16.9937 19.1848 16.5612 19.0525 16.1792 18.823L15.7979 19.4576Z" />
    </mask>
    <path
        d="M15.7979 19.4576C16.2838 19.7495 16.8339 19.9177 17.4 19.9473C17.966 19.977 18.5307 19.8671 19.0444 19.6275C19.5581 19.3878 20.0051 19.0257 20.346 18.5729C20.687 18.1201 20.9116 17.5905 21 17.0306L20.2688 16.9151C20.1993 17.3552 20.0227 17.7716 19.7547 18.1275C19.4866 18.4835 19.1352 18.7682 18.7314 18.9566C18.3276 19.145 17.8837 19.2313 17.4387 19.208C16.9937 19.1848 16.5612 19.0525 16.1792 18.823L15.7979 19.4576Z"
        stroke="#F6501B" stroke-width="0.6" mask="url(#path-5-inside-2_11_1140)" />
    <circle cx="43.8938" cy="42.8022" r="5.76923" transform="rotate(-45 43.8938 42.8022)" fill="#FFFFFF" />
    <mask id="path-7-inside-3_11_1140" fill="#F6501B">
        <path
            d="M42.1102 45.7698C42.596 46.0618 43.1462 46.23 43.7122 46.2596C44.2783 46.2892 44.843 46.1794 45.3567 45.9397C45.8703 45.7001 46.3173 45.3379 46.6583 44.8851C46.9993 44.4323 47.2239 43.9027 47.3123 43.3428L46.5811 43.2273C46.5115 43.6675 46.335 44.0838 46.0669 44.4398C45.7989 44.7958 45.4475 45.0804 45.0437 45.2688C44.6398 45.4572 44.1959 45.5436 43.7509 45.5203C43.3059 45.497 42.8734 45.3648 42.4915 45.1353L42.1102 45.7698Z" />
    </mask>
    <path
        d="M42.1102 45.7698C42.596 46.0618 43.1462 46.23 43.7122 46.2596C44.2783 46.2892 44.843 46.1794 45.3567 45.9397C45.8703 45.7001 46.3173 45.3379 46.6583 44.8851C46.9993 44.4323 47.2239 43.9027 47.3123 43.3428L46.5811 43.2273C46.5115 43.6675 46.335 44.0838 46.0669 44.4398C45.7989 44.7958 45.4475 45.0804 45.0437 45.2688C44.6398 45.4572 44.1959 45.5436 43.7509 45.5203C43.3059 45.497 42.8734 45.3648 42.4915 45.1353L42.1102 45.7698Z"
        stroke="#F6501B" stroke-width="0.6" mask="url(#path-7-inside-3_11_1140)" />
</svg>