<svg width="60" height="60" viewBox="0 0 60 60" fill="none" xmlns="http://www.w3.org/2000/svg">
    <rect width="60" height="60" rx="4" fill="#F6501B" />
    <circle cx="12.8364" cy="29.3264" r="5.76923" fill="#FFFFFF" />
    <mask id="path-3-inside-1_11_1190" fill="#F6501B">
        <path
            d="M9.47704 30.1636C9.61415 30.7136 9.88422 31.2216 10.2635 31.6428C10.6429 32.064 11.1198 32.3856 11.6525 32.5794C12.1852 32.7731 12.7573 32.8331 13.3186 32.7541C13.8799 32.675 14.4132 32.4593 14.8717 32.1259L14.4363 31.5272C14.0759 31.7893 13.6566 31.9589 13.2154 32.021C12.7741 32.0832 12.3243 32.036 11.9056 31.8837C11.4868 31.7314 11.1119 31.4785 10.8137 31.1474C10.5155 30.8162 10.3031 30.417 10.1954 29.9846L9.47704 30.1636Z" />
    </mask>
    <path
        d="M9.47704 30.1636C9.61415 30.7136 9.88422 31.2216 10.2635 31.6428C10.6429 32.064 11.1198 32.3856 11.6525 32.5794C12.1852 32.7731 12.7573 32.8331 13.3186 32.7541C13.8799 32.675 14.4132 32.4593 14.8717 32.1259L14.4363 31.5272C14.0759 31.7893 13.6566 31.9589 13.2154 32.021C12.7741 32.0832 12.3243 32.036 11.9056 31.8837C11.4868 31.7314 11.1119 31.4785 10.8137 31.1474C10.5155 30.8162 10.3031 30.417 10.1954 29.9846L9.47704 30.1636Z"
        stroke="#F6501B" stroke-width="0.6" mask="url(#path-3-inside-1_11_1190)" />
    <circle cx="48.1721" cy="29.3264" r="5.76923" fill="#FFFFFF" />
    <mask id="path-5-inside-2_11_1190" fill="#F6501B">
        <path
            d="M44.8125 30.1636C44.9496 30.7136 45.2197 31.2216 45.599 31.6428C45.9783 32.064 46.4553 32.3856 46.988 32.5794C47.5207 32.7731 48.0928 32.8331 48.6541 32.7541C49.2154 32.675 49.7487 32.4593 50.2071 32.1259L49.7717 31.5272C49.4113 31.7893 48.9921 31.9589 48.5508 32.021C48.1096 32.0832 47.6598 32.036 47.241 31.8837C46.8223 31.7314 46.4473 31.4785 46.1491 31.1474C45.8509 30.8162 45.6386 30.417 45.5308 29.9846L44.8125 30.1636Z" />
    </mask>
    <path
        d="M44.8125 30.1636C44.9496 30.7136 45.2197 31.2216 45.599 31.6428C45.9783 32.064 46.4553 32.3856 46.988 32.5794C47.5207 32.7731 48.0928 32.8331 48.6541 32.7541C49.2154 32.675 49.7487 32.4593 50.2071 32.1259L49.7717 31.5272C49.4113 31.7893 48.9921 31.9589 48.5508 32.021C48.1096 32.0832 47.6598 32.036 47.241 31.8837C46.8223 31.7314 46.4473 31.4785 46.1491 31.1474C45.8509 30.8162 45.6386 30.417 45.5308 29.9846L44.8125 30.1636Z"
        stroke="#F6501B" stroke-width="0.6" mask="url(#path-5-inside-2_11_1190)" />
    <circle cx="12.8364" cy="12.8364" r="5.76923" fill="#FFFFFF" />
    <mask id="path-7-inside-3_11_1190" fill="#F6501B">
        <path
            d="M9.47704 13.6736C9.61415 14.2236 9.88422 14.7316 10.2635 15.1528C10.6429 15.574 11.1198 15.8956 11.6525 16.0894C12.1852 16.2832 12.7573 16.3431 13.3186 16.2641C13.8799 16.185 14.4132 15.9693 14.8717 15.6359L14.4363 15.0372C14.0759 15.2993 13.6566 15.4689 13.2154 15.531C12.7741 15.5932 12.3243 15.546 11.9056 15.3937C11.4868 15.2414 11.1119 14.9885 10.8137 14.6574C10.5155 14.3263 10.3031 13.927 10.1954 13.4946L9.47704 13.6736Z" />
    </mask>
    <path
        d="M9.47704 13.6736C9.61415 14.2236 9.88422 14.7316 10.2635 15.1528C10.6429 15.574 11.1198 15.8956 11.6525 16.0894C12.1852 16.2832 12.7573 16.3431 13.3186 16.2641C13.8799 16.185 14.4132 15.9693 14.8717 15.6359L14.4363 15.0372C14.0759 15.2993 13.6566 15.4689 13.2154 15.531C12.7741 15.5932 12.3243 15.546 11.9056 15.3937C11.4868 15.2414 11.1119 14.9885 10.8137 14.6574C10.5155 14.3263 10.3031 13.927 10.1954 13.4946L9.47704 13.6736Z"
        stroke="#F6501B" stroke-width="0.6" mask="url(#path-7-inside-3_11_1190)" />
    <circle cx="47.9318" cy="12.8364" r="5.76923" fill="#FFFFFF" />
    <mask id="path-9-inside-4_11_1190" fill="#F6501B">
        <path
            d="M44.5723 13.6736C44.7094 14.2236 44.9794 14.7316 45.3588 15.1528C45.7381 15.574 46.215 15.8956 46.7477 16.0894C47.2804 16.2832 47.8525 16.3431 48.4138 16.2641C48.9751 16.185 49.5084 15.9693 49.9669 15.6359L49.5315 15.0372C49.1711 15.2993 48.7518 15.4689 48.3106 15.531C47.8693 15.5932 47.4196 15.546 47.0008 15.3937C46.582 15.2414 46.2071 14.9885 45.9089 14.6574C45.6107 14.3263 45.3984 13.927 45.2906 13.4946L44.5723 13.6736Z" />
    </mask>
    <path
        d="M44.5723 13.6736C44.7094 14.2236 44.9794 14.7316 45.3588 15.1528C45.7381 15.574 46.215 15.8956 46.7477 16.0894C47.2804 16.2832 47.8525 16.3431 48.4138 16.2641C48.9751 16.185 49.5084 15.9693 49.9669 15.6359L49.5315 15.0372C49.1711 15.2993 48.7518 15.4689 48.3106 15.531C47.8693 15.5932 47.4196 15.546 47.0008 15.3937C46.582 15.2414 46.2071 14.9885 45.9089 14.6574C45.6107 14.3263 45.3984 13.927 45.2906 13.4946L44.5723 13.6736Z"
        stroke="#F6501B" stroke-width="0.6" mask="url(#path-9-inside-4_11_1190)" />
    <circle cx="12.8364" cy="45.8163" r="5.76923" fill="#FFFFFF" />
    <mask id="path-11-inside-5_11_1190" fill="#F6501B">
        <path
            d="M9.47704 46.6536C9.61415 47.2036 9.88422 47.7116 10.2635 48.1328C10.6429 48.554 11.1198 48.8756 11.6525 49.0694C12.1852 49.2631 12.7573 49.3231 13.3186 49.2441C13.8799 49.165 14.4132 48.9493 14.8717 48.6159L14.4363 48.0172C14.0759 48.2793 13.6566 48.4488 13.2154 48.511C12.7741 48.5732 12.3243 48.526 11.9056 48.3737C11.4868 48.2213 11.1119 47.9685 10.8137 47.6374C10.5155 47.3062 10.3031 46.9069 10.1954 46.4746L9.47704 46.6536Z" />
    </mask>
    <path
        d="M9.47704 46.6536C9.61415 47.2036 9.88422 47.7116 10.2635 48.1328C10.6429 48.554 11.1198 48.8756 11.6525 49.0694C12.1852 49.2631 12.7573 49.3231 13.3186 49.2441C13.8799 49.165 14.4132 48.9493 14.8717 48.6159L14.4363 48.0172C14.0759 48.2793 13.6566 48.4488 13.2154 48.511C12.7741 48.5732 12.3243 48.526 11.9056 48.3737C11.4868 48.2213 11.1119 47.9685 10.8137 47.6374C10.5155 47.3062 10.3031 46.9069 10.1954 46.4746L9.47704 46.6536Z"
        stroke="#F6501B" stroke-width="0.6" mask="url(#path-11-inside-5_11_1190)" />
    <circle cx="47.9318" cy="45.8163" r="5.76923" fill="#FFFFFF" />
    <mask id="path-13-inside-6_11_1190" fill="#F6501B">
        <path
            d="M44.5723 46.6536C44.7094 47.2036 44.9794 47.7116 45.3588 48.1328C45.7381 48.554 46.215 48.8756 46.7477 49.0694C47.2804 49.2631 47.8525 49.3231 48.4138 49.2441C48.9751 49.165 49.5084 48.9493 49.9669 48.6159L49.5315 48.0172C49.1711 48.2793 48.7518 48.4488 48.3106 48.511C47.8693 48.5732 47.4196 48.526 47.0008 48.3737C46.582 48.2213 46.2071 47.9685 45.9089 47.6374C45.6107 47.3062 45.3984 46.9069 45.2906 46.4746L44.5723 46.6536Z" />
    </mask>
    <path
        d="M44.5723 46.6536C44.7094 47.2036 44.9794 47.7116 45.3588 48.1328C45.7381 48.554 46.215 48.8756 46.7477 49.0694C47.2804 49.2631 47.8525 49.3231 48.4138 49.2441C48.9751 49.165 49.5084 48.9493 49.9669 48.6159L49.5315 48.0172C49.1711 48.2793 48.7518 48.4488 48.3106 48.511C47.8693 48.5732 47.4196 48.526 47.0008 48.3737C46.582 48.2213 46.2071 47.9685 45.9089 47.6374C45.6107 47.3062 45.3984 46.9069 45.2906 46.4746L44.5723 46.6536Z"
        stroke="#F6501B" stroke-width="0.6" mask="url(#path-13-inside-6_11_1190)" />
</svg>