<svg width="60" height="60" viewBox="0 0 60 60" fill="none" xmlns="http://www.w3.org/2000/svg">
<rect width="60" height="60" rx="4" fill="white"/>
<circle cx="17.5818" cy="18.8457" r="5.76923" transform="rotate(-45 17.5818 18.8457)" fill="black"/>
<mask id="path-3-inside-1_11_1124" fill="white">
<path d="M15.7984 21.8133C16.2843 22.1052 16.8344 22.2734 17.4005 22.3031C17.9665 22.3327 18.5312 22.2228 19.0449 21.9832C19.5586 21.7435 20.0055 21.3814 20.3465 20.9286C20.6875 20.4758 20.9121 19.9462 21.0005 19.3863L20.2693 19.2708C20.1998 19.7109 20.0232 20.1273 19.7552 20.4832C19.4871 20.8392 19.1357 21.1239 18.7319 21.3123C18.3281 21.5007 17.8842 21.5871 17.4391 21.5638C16.9941 21.5405 16.5617 21.4083 16.1797 21.1787L15.7984 21.8133Z"/>
</mask>
<path d="M15.7984 21.8133C16.2843 22.1052 16.8344 22.2734 17.4005 22.3031C17.9665 22.3327 18.5312 22.2228 19.0449 21.9832C19.5586 21.7435 20.0055 21.3814 20.3465 20.9286C20.6875 20.4758 20.9121 19.9462 21.0005 19.3863L20.2693 19.2708C20.1998 19.7109 20.0232 20.1273 19.7552 20.4832C19.4871 20.8392 19.1357 21.1239 18.7319 21.3123C18.3281 21.5007 17.8842 21.5871 17.4391 21.5638C16.9941 21.5405 16.5617 21.4083 16.1797 21.1787L15.7984 21.8133Z" stroke="white" stroke-width="0.6" mask="url(#path-3-inside-1_11_1124)"/>
<circle cx="42.9414" cy="43.4585" r="5.76923" transform="rotate(-45 42.9414 43.4585)" fill="black"/>
<mask id="path-5-inside-2_11_1124" fill="white">
<path d="M41.1578 46.4261C41.6436 46.718 42.1938 46.8862 42.7598 46.9158C43.3259 46.9455 43.8906 46.8356 44.4043 46.596C44.9179 46.3563 45.3649 45.9942 45.7059 45.5414C46.0469 45.0886 46.2715 44.559 46.3599 43.9991L45.6287 43.8836C45.5591 44.3237 45.3826 44.7401 45.1145 45.096C44.8465 45.452 44.4951 45.7367 44.0913 45.9251C43.6874 46.1135 43.2435 46.1998 42.7985 46.1766C42.3535 46.1533 41.921 46.0211 41.5391 45.7915L41.1578 46.4261Z"/>
</mask>
<path d="M41.1578 46.4261C41.6436 46.718 42.1938 46.8862 42.7598 46.9158C43.3259 46.9455 43.8906 46.8356 44.4043 46.596C44.9179 46.3563 45.3649 45.9942 45.7059 45.5414C46.0469 45.0886 46.2715 44.559 46.3599 43.9991L45.6287 43.8836C45.5591 44.3237 45.3826 44.7401 45.1145 45.096C44.8465 45.452 44.4951 45.7367 44.0913 45.9251C43.6874 46.1135 43.2435 46.1998 42.7985 46.1766C42.3535 46.1533 41.921 46.0211 41.5391 45.7915L41.1578 46.4261Z" stroke="white" stroke-width="0.6" mask="url(#path-5-inside-2_11_1124)"/>
</svg>
